/* XPM */
static const char *wireshark[] = {
/* columns rows colors chars-per-pixel */
"30 30 140 2 ",
"   c #000101",
".  c #03090C",
"X  c #030E14",
"o  c #051116",
"O  c #05161E",
"+  c #09151A",
"@  c #111212",
"#  c #041720",
"$  c #051923",
"%  c #091D26",
"&  c #081E28",
"*  c #072736",
"=  c #0D2630",
"-  c #0C2835",
";  c #0E2C3A",
":  c #232627",
">  c #2C2E2F",
",  c #303132",
"<  c #353638",
"1  c gray23",
"2  c #0F3648",
"3  c #103546",
"4  c #12394B",
"5  c #0B3E57",
"6  c #0C3F58",
"7  c #133E52",
"8  c #0D435C",
"9  c #144155",
"0  c #16465C",
"q  c #0E4762",
"w  c #0E4A67",
"e  c #0F4C68",
"r  c #114E6B",
"t  c #13516D",
"y  c #1A526C",
"u  c #1A5775",
"i  c #165A79",
"p  c #1C5D7B",
"a  c gray27",
"s  c #4C4C4C",
"d  c #535353",
"f  c gray37",
"g  c gray40",
"h  c #6A6A6A",
"j  c #186487",
"k  c #1E6B8F",
"l  c #1E6F96",
"z  c #1E749B",
"x  c #216281",
"c  c #21698A",
"v  c #236F91",
"b  c #247194",
"n  c #27769C",
"m  c #1677A5",
"M  c #1679A8",
"N  c #197DAC",
"B  c #2279A2",
"V  c #1B80AF",
"C  c #1E83B3",
"Z  c #2B83AB",
"A  c #2186B5",
"S  c #2A87B1",
"D  c #2A89B6",
"F  c #2187B8",
"G  c #238BBB",
"H  c #2B8EBC",
"J  c #3087B1",
"K  c #378BB1",
"L  c #308DB9",
"P  c #2C90BF",
"I  c #3291BD",
"U  c #79858A",
"Y  c #4E9ABE",
"T  c #5097B9",
"R  c #5A9CBA",
"E  c #258FC0",
"W  c #298FC0",
"Q  c #2790C1",
"!  c #2A94C4",
"~  c #2C97C9",
"^  c #2E99CC",
"/  c #3596C3",
"(  c #3D99C5",
")  c #3097C8",
"_  c #309CCE",
"`  c #329FD1",
"'  c #34A2D4",
"]  c #37A6D8",
"[  c #38A6DB",
"{  c #3AA9DE",
"}  c #3CADE1",
"|  c #3FB0E5",
" . c #419DC6",
".. c #539EC2",
"X. c #46A0C9",
"o. c #4CA2CA",
"O. c #57A3C6",
"+. c #5AA2C4",
"@. c #53A3C9",
"#. c #5CA6C8",
"$. c #6FA9C5",
"%. c #62A9CB",
"&. c #6AAECE",
"*. c #73ACC7",
"=. c #6EB0CF",
"-. c #74B2CF",
";. c #7BB2CB",
":. c #8BA2AD",
">. c #8EA6B0",
",. c #90A7B1",
"<. c #94AAB3",
"1. c #99AEB7",
"2. c #9CAFB8",
"3. c #9FB2BA",
"4. c #AEB3B5",
"5. c #A4B4BC",
"6. c #80B1C7",
"7. c #82B6CF",
"8. c #86B8CF",
"9. c #97BECF",
"0. c #9CBECE",
"q. c #89BAD1",
"w. c #8DBBD1",
"e. c #8FBDD1",
"r. c #91BDD0",
"t. c #93BED1",
"y. c #94BDD0",
"u. c #96BED0",
"i. c #A9B8C0",
"p. c #ABB9C1",
"a. c #ADBAC1",
"s. c #AEBBC1",
"d. c #A0BFCD",
"f. c #B1BCC3",
"g. c #B4BEC3",
"h. c #B3BDC4",
"j. c #B4BEC4",
"k. c #A3C0CE",
"l. c None",
"z. c black",
/* pixels */
"l.l.> , 1 a d d d f f f f g h h g f f f f f f d s a < : l.l.",
"l.@ 4.g.j.j.j.j.h.f.a.a.p.p.5.5.5.5.3.2.1.1.<.<.,.>.:.U   l.",
"  & R k.d.0.0.0.0.9.u.u.r.r.e.w.q.q.8.7.7.;.;.;.*.*.$.K &   ",
"  8 M T 6.;.;.;.;.;.-.-.-.-.=.=.&.&.%.%.%.#.+.....Y S M 8   ",
"  w M M J +.+.+.@.@.@.@.@.o.o.o.X.X. .( ( / I H D A N M w   ",
"  w M M N A L I I I ! ! ! ! ~ ~ ~ ~ ! ! ! H H G A C N N w   ",
"  w M N N C A G H H ! ! ~ ~ ^ ^ ^ ^ P v p y B G G C C N e   ",
"  w M N C C F G H ! ~ ~ ^ _ _ ) x =     .   i H G A C C r   ",
"  w M N C C G H ! ! ~ ^ _ ` b + . 7 v ! 9 # ! Q H G A C r   ",
"  w N C C F G E ! ~ ^ ^ _ 0   0 ) ' ' _ . u ~ ! H G A C r   ",
"  e N C C G H Q ~ ^ ^ _ 3 . n [ [ ] ' Z   S ~ ! Q H G C t   ",
"  e N C C G H Q ~ ^ _ 0 . Z { { { { ] p o ^ ~ ~ Q H G A t   ",
"  e N C C G H Q ~ ^ b   b { } } } { [ 0 ; _ ^ ~ Q H G C t   ",
"  e N C A G H ! ~ ~ + 9 ] { } | | } { 7 3 _ ^ ~ Q H G C t   ",
"  e N C C G H ! ~ u . ~ ] { } } } { [ 4 4 _ ^ ~ Q G G C t   ",
"  e N C C G H Q ~ O 0 ` ' [ { { { { ] 0 ; ^ ~ ~ Q G G C t   ",
"  e N C C G H ! k   S ` ' ' ] [ [ ] ' y % ^ ~ ! Q H G C t   ",
"  w N C C F G E 2 - ^ ^ ` ' ' ' ' ' ' c   ~ ~ Q H G A C r   ",
"  w M N C C G G X t ~ ^ ^ _ ` ` ` ` _ S   B ! Q H G A C r   ",
"  w M N C C F z   B ! ~ ~ ^ ^ ^ ^ ^ ^ ~ o r ! H G A C C e   ",
"  w M M N C A i   H Q ! ~ ~ ~ ~ ^ ~ ~ ~ 7 & H G G C C N e   ",
"  X O # # # # X # G H Q Q ! ! ~ ! ! ! Q l   # # # # # # X   ",
"  * 5 5 6 8 8 8 j G G G H E Q Q Q Q H H H t 0 8 8 8 8 5 *   ",
"  w M M M M N C C C A G G G H H G G G G G C C C V N M M w   ",
"  w M M M M M N N C C C C A F G G F A C C C C N N M M M w   ",
"  w M M M M M M N N V C C C C C C C C C C V N N M M M M w   ",
"  8 M M M M M M M M N N N V C C C V N N N N M M M M M M 8   ",
"  # m M M M M M M M M M M N N N N N M M M M M M M M M m #   ",
"l.  # 8 q q q q q q q q q q q q q q q q q q q q q q 6 O   l.",
"l.l.                                                    l.l."
};
