/* XPM */
static char * bsd_puffy_xpm[] = {
"48 20 233 2",
"  	c #D7D7D7",
". 	c #D1D1D1",
"+ 	c #CFCFCF",
"@ 	c #D6D6D6",
"# 	c #B7B8B8",
"$ 	c #D5D5D5",
"% 	c #B9B9B9",
"& 	c #AFAFAC",
"* 	c #A0A19C",
"= 	c #A2A29D",
"- 	c #A29977",
"; 	c #81817F",
"> 	c #C7C7C7",
", 	c #BDBEBE",
"' 	c #D4D4D4",
") 	c #C1C3C3",
"! 	c #C2C3C3",
"~ 	c #94927E",
"{ 	c #DDCE6F",
"] 	c #D1C468",
"^ 	c #D7C864",
"/ 	c #EBD664",
"( 	c #AC9C4A",
"_ 	c #BFAE71",
": 	c #9C9379",
"< 	c #C3C4C4",
"[ 	c #BEBEBB",
"} 	c #AEAFAE",
"| 	c #C2BB7F",
"1 	c #D9CF72",
"2 	c #D0C769",
"3 	c #E9DE71",
"4 	c #E3D76C",
"5 	c #DFD266",
"6 	c #E6D463",
"7 	c #D2BE54",
"8 	c #C9B147",
"9 	c #8F8E86",
"0 	c #BBBCBB",
"a 	c #C3C3C3",
"b 	c #000000",
"c 	c #595D59",
"d 	c #BEBEBE",
"e 	c #414541",
"f 	c #8E8E8E",
"g 	c #181810",
"h 	c #B8BABA",
"i 	c #9C9860",
"j 	c #DCD573",
"k 	c #D5CE6C",
"l 	c #EAE377",
"m 	c #EFE97B",
"n 	c #E0D971",
"o 	c #E5DD72",
"p 	c #E5DA6F",
"q 	c #DFD162",
"r 	c #E2CB57",
"s 	c #D5B843",
"t 	c #877A5D",
"u 	c #BFC0C0",
"v 	c #717571",
"w 	c #282C28",
"x 	c #BCB370",
"y 	c #E2D874",
"z 	c #F6ED7D",
"A 	c #E2DF77",
"B 	c #DBD975",
"C 	c #E9E67C",
"D 	c #F4F080",
"E 	c #F8F280",
"F 	c #F0E778",
"G 	c #D4CB66",
"H 	c #E6D664",
"I 	c #C8B64F",
"J 	c #9A8A56",
"K 	c #C8C8C8",
"L 	c #AEAFAA",
"M 	c #B8B270",
"N 	c #D6D06D",
"O 	c #D9D672",
"P 	c #D3D173",
"Q 	c #FDF886",
"R 	c #F7F384",
"S 	c #F0EB80",
"T 	c #FAF583",
"U 	c #EFE97C",
"V 	c #F2E877",
"W 	c #B7B077",
"X 	c #C9C49A",
"Y 	c #A5944A",
"Z 	c #A7A7A1",
"` 	c #A6A6A6",
" .	c #B8B8B6",
"..	c #C4B699",
"+.	c #CCCBC8",
"@.	c #A7A8A8",
"#.	c #C4BE67",
"$.	c #E3DC74",
"%.	c #DAD875",
"&.	c #EDE980",
"*.	c #F6F183",
"=.	c #F4F082",
"-.	c #F1ED81",
";.	c #F6F182",
">.	c #FAF682",
",.	c #FAF17D",
"'.	c #CBC693",
").	c #D6D6D5",
"!.	c #A79763",
"~.	c #979592",
"{.	c #D3D3D3",
"].	c #C2C2C2",
"^.	c #AF975C",
"/.	c #D9C05E",
"(.	c #AEA98D",
"_.	c #DAD171",
":.	c #F4EC7D",
"<.	c #F1ED7F",
"[.	c #F7F385",
"}.	c #F3EE82",
"|.	c #F5F184",
"1.	c #F9F484",
"2.	c #FBF685",
"3.	c #F7F381",
"4.	c #F6EE7C",
"5.	c #F2E472",
"6.	c #C6B556",
"7.	c #CCC05B",
"8.	c #AE9E53",
"9.	c #C0C0BE",
"0.	c #CEB64A",
"a.	c #F2DD65",
"b.	c #E0D66E",
"c.	c #CEC96A",
"d.	c #E2E078",
"e.	c #F0EC81",
"f.	c #DFDD78",
"g.	c #D6D371",
"h.	c #EFE678",
"i.	c #F0EC7E",
"j.	c #FCF27E",
"k.	c #EEE16F",
"l.	c #B5A94D",
"m.	c #BDBC51",
"n.	c #BFA941",
"o.	c #979185",
"p.	c #ADA386",
"q.	c #D3BE52",
"r.	c #B2AB56",
"s.	c #D6D06B",
"t.	c #E3DE76",
"u.	c #DEDC77",
"v.	c #E2DD74",
"w.	c #E2DD76",
"x.	c #E8E27A",
"y.	c #F3EF80",
"z.	c #EFEA7B",
"A.	c #E8E073",
"B.	c #E7D869",
"C.	c #C5B44E",
"D.	c #ECEAA5",
"E.	c #B1A267",
"F.	c #96904C",
"G.	c #A9A9A7",
"H.	c #AFAEAB",
"I.	c #8C835C",
"J.	c #848164",
"K.	c #CFC764",
"L.	c #CFC767",
"M.	c #B7B05B",
"N.	c #DEDB76",
"O.	c #E8E57B",
"P.	c #F7F17F",
"Q.	c #DBD169",
"R.	c #EDDA62",
"S.	c #CCB549",
"T.	c #A1923C",
"U.	c #746F63",
"V.	c #9A9A9A",
"W.	c #AFAFAF",
"X.	c #B5B5B5",
"Y.	c #A4A4A4",
"Z.	c #C6B855",
"`.	c #D4CA66",
" +	c #D3CE6B",
".+	c #E4DD73",
"++	c #F0E97A",
"@+	c #E4DC73",
"#+	c #DED56E",
"$+	c #F0E471",
"%+	c #D8C85D",
"&+	c #DCC552",
"*+	c #B29835",
"=+	c #6B6045",
"-+	c #ABABAB",
";+	c #B4B4B4",
">+	c #959493",
",+	c #90894B",
"'+	c #DED164",
")+	c #D8CD67",
"!+	c #C2BB5F",
"~+	c #CBC15F",
"{+	c #E5D360",
"]+	c #C3B04B",
"^+	c #B69E3A",
"/+	c #8D773A",
"(+	c #868482",
"_+	c #D2D2D2",
":+	c #C5C5C5",
"<+	c #ADADAD",
"[+	c #7D7349",
"}+	c #877F3E",
"|+	c #CFBE54",
"1+	c #AB9C46",
"2+	c #BFAC48",
"3+	c #A4913B",
"4+	c #B29A35",
"5+	c #7E7359",
"6+	c #858483",
"7+	c #B8B8B8",
"8+	c #C9CAC9",
"9+	c #ACACAC",
"0+	c #999999",
"a+	c #6C665E",
"b+	c #6A685F",
"c+	c #7F7049",
"d+	c #6C6658",
"e+	c #7A7774",
"f+	c #A0A0A0",
"g+	c #C6C6C6",
"h+	c #B0B0B0",
"i+	c #BFBFBF",
"j+	c #ACACAB",
"                                                                                                ",
"                                                                                                ",
"                                                                      .   + @ # $               ",
"                                                                    + % & * = - ; > , '         ",
"                                                                  ) ! ~ { ] ^ / ( _ : <         ",
"                                                                [ } | 1 2 3 4 5 6 7 8 9 0 a     ",
"        b b b b b c     d e b b b c     f b b b b g f         ! h i j k l m n o p q r s t u     ",
"      f b c f f e b f   g g f v w b f   e b f f c b g         ! x y z A B C D E F G H I J K     ",
"      f b f     f b d e b f     f b f   e b       e b         L M N O P Q R S T U V W X Y Z @   ",
"      e b v f v g e   e b w f `         b w       e b    ...+.@.#.$.%.&.*.=.-.;.>.,.'.).!.~.{.  ",
"    d w b b b b b `     c g b b b v   ` b e       w b   ].^./.(._.:.<.[.}.|.1.2.3.4.5.6.7.8.].  ",
"    f b e     d b e         d v g b   e b f     d b c     9.0.a.b.c.d.e.f.g.h.R i.j.k.l.m.n.o.@ ",
"    c b v     d b c e b v     ` g e   g b d   d e b d     @ p.q.r.s.t.u.v.w.x.y.z.A.B.C.D.E.F.G.",
"    e b c f v w b ` v b g f f w b f   b b f f w b e         H.I.J.K.c.L.M.N.O.P.h.Q.R.S.T.U.V.W.",
"    b b b b b g f     c g b b e v   f b b b b g c           < X.Y.Z.`. +.+++@+#+$+%+&+*+=+-+@   ",
"                                                                ;+>+,+'+)+!+k.~+{+]+^+/+(++     ",
"                                                                _+:+<+[+}+|+1+2+3+4+5+6+7+.     ",
"                                                                    8+9+0+a+b+c+d+e+f+g+{.      ",
"                                                                    @ ' {.h+i+j+7+].K @         ",
"                                                                          $ @ $ '               "};
