/* XPM */
static char * openbsd73_logo_icewm_xpm[] = {
"45 20 433 2",
"  	c None",
". 	c #000000",
"+ 	c #340E11",
"@ 	c #2D0B0E",
"# 	c #602126",
"$ 	c #73282D",
"% 	c #622327",
"& 	c #87353A",
"* 	c #D79D94",
"= 	c #A96260",
"- 	c #7F2E34",
"; 	c #C29A8F",
"> 	c #873137",
", 	c #AF424A",
"' 	c #DE928C",
") 	c #443934",
"! 	c #DD555F",
"~ 	c #B35D5E",
"{ 	c #AB4048",
"] 	c #843035",
"^ 	c #96383F",
"/ 	c #EA5B65",
"( 	c #9D3B42",
"_ 	c #3D1215",
": 	c #27090B",
"< 	c #D2515A",
"[ 	c #FFB6AC",
"} 	c #FFC3B7",
"| 	c #A43D44",
"1 	c #C34B53",
"2 	c #D7535C",
"3 	c #94363D",
"4 	c #F4ABA2",
"5 	c #FF8284",
"6 	c #893238",
"7 	c #F8616C",
"8 	c #FFAFA6",
"9 	c #F15E68",
"0 	c #020000",
"a 	c #C74C55",
"b 	c #FF6F77",
"c 	c #A16762",
"d 	c #CB4E57",
"e 	c #E69791",
"f 	c #511A1E",
"g 	c #72282D",
"h 	c #D3585B",
"i 	c #DA565E",
"j 	c #E35862",
"k 	c #E56C65",
"l 	c #B14A4B",
"m 	c #E45A63",
"n 	c #672429",
"o 	c #9C3A41",
"p 	c #FF646F",
"q 	c #F38A88",
"r 	c #AD7973",
"s 	c #C44B54",
"t 	c #7E2D33",
"u 	c #DB555E",
"v 	c #ED5C66",
"w 	c #652327",
"x 	c #BE4951",
"y 	c #F5606A",
"z 	c #A83E46",
"A 	c #94373E",
"B 	c #CB4E56",
"C 	c #BE4850",
"D 	c #C34A53",
"E 	c #DC555F",
"F 	c #030001",
"G 	c #401317",
"H 	c #E65A64",
"I 	c #E65963",
"J 	c #EF6268",
"K 	c #FC626D",
"L 	c #EF6568",
"M 	c #FA6E6E",
"N 	c #E56664",
"O 	c #E86065",
"P 	c #8E343B",
"Q 	c #7C2D32",
"R 	c #350E11",
"S 	c #BD9389",
"T 	c #FB626D",
"U 	c #BA474F",
"V 	c #8A3339",
"W 	c #F7616B",
"X 	c #FF7379",
"Y 	c #AA7D76",
"Z 	c #B25D5D",
"` 	c #D86166",
" .	c #652328",
"..	c #BE575B",
"+.	c #BE6E6C",
"@.	c #E15761",
"#.	c #010000",
"$.	c #E27979",
"%.	c #DD565F",
"&.	c #EE5D67",
"*.	c #FA7D80",
"=.	c #0B0202",
"-.	c #431417",
";.	c #9A3940",
">.	c #E25E62",
",.	c #DF6162",
"'.	c #F26D6B",
").	c #E45F63",
"!.	c #ED6267",
"~.	c #F4606A",
"{.	c #F8656C",
"].	c #DA555E",
"^.	c #DE5660",
"/.	c #040101",
"(.	c #BD5458",
"_.	c #FE646F",
":.	c #A03C43",
"<.	c #CD4F58",
"[.	c #FF7A7E",
"}.	c #AA8178",
"|.	c #561E22",
"1.	c #EE8584",
"2.	c #EE7276",
"3.	c #5D5950",
"4.	c #CA847E",
"5.	c #300D0F",
"6.	c #FF8485",
"7.	c #6F272C",
"8.	c #EA7A7B",
"9.	c #FFCFC1",
"0.	c #EB5D66",
"a.	c #EA6566",
"b.	c #FB686E",
"c.	c #F06068",
"d.	c #FB6E6F",
"e.	c #F16A6A",
"f.	c #FA656D",
"g.	c #FF686F",
"h.	c #FB736F",
"i.	c #FE6D6F",
"j.	c #EE6668",
"k.	c #B66A6F",
"l.	c #B3575D",
"m.	c #812F34",
"n.	c #833036",
"o.	c #BC4951",
"p.	c #383530",
"q.	c #DA6066",
"r.	c #A63E46",
"s.	c #74292E",
"t.	c #A73E46",
"u.	c #CC938A",
"v.	c #8C343A",
"w.	c #642026",
"x.	c #B2434B",
"y.	c #120303",
"z.	c #3A1013",
"A.	c #CF5059",
"B.	c #DE5960",
"C.	c #F6676C",
"D.	c #F5776D",
"E.	c #FE6B6F",
"F.	c #FD666E",
"G.	c #F6626B",
"H.	c #FD636E",
"I.	c #FD676F",
"J.	c #FE6E70",
"K.	c #CC4E57",
"L.	c #B2A0A1",
"M.	c #7E6E6F",
"N.	c #80363B",
"O.	c #0B0404",
"P.	c #8C333A",
"Q.	c #E67073",
"R.	c #FFBCB1",
"S.	c #F86E75",
"T.	c #D5525C",
"U.	c #48161A",
"V.	c #E45962",
"W.	c #D0505A",
"X.	c #4E191D",
"Y.	c #DA837F",
"Z.	c #FCA59E",
"`.	c #DF5760",
" +	c #2B0A0C",
".+	c #91353C",
"++	c #913B40",
"@+	c #FF747A",
"#+	c #240709",
"$+	c #A33F44",
"%+	c #682429",
"&+	c #4B181B",
"*+	c #C84D56",
"=+	c #F8686C",
"-+	c #EA6F68",
";+	c #F5626B",
">+	c #FA6A6E",
",+	c #FF666F",
"'+	c #E05761",
")+	c #A78385",
"!+	c #8C8C8C",
"~+	c #853D41",
"{+	c #040202",
"]+	c #5E2024",
"^+	c #D4525B",
"/+	c #BD4750",
"(+	c #7D2D33",
"_+	c #A43D45",
":+	c #3A1113",
"<+	c #130303",
"[+	c #1F0607",
"}+	c #782B30",
"|+	c #977B72",
"1+	c #77342F",
"2+	c #E25862",
"3+	c #792B31",
"4+	c #A84447",
"5+	c #F2656A",
"6+	c #FE676F",
"7+	c #FD7070",
"8+	c #FF6A70",
"9+	c #FE6A6F",
"0+	c #FF6C70",
"a+	c #FD646E",
"b+	c #FC636D",
"c+	c #FE656F",
"d+	c #8F353B",
"e+	c #A35A5F",
"f+	c #82474B",
"g+	c #010101",
"h+	c #8D5958",
"i+	c #BF4951",
"j+	c #AB857C",
"k+	c #B5454D",
"l+	c #A63E45",
"m+	c #D0AC9F",
"n+	c #8D5955",
"o+	c #E15760",
"p+	c #B0434A",
"q+	c #24211F",
"r+	c #A23D44",
"s+	c #DA585E",
"t+	c #EE6A69",
"u+	c #FC716F",
"v+	c #F8666C",
"w+	c #C64F55",
"x+	c #FA626D",
"y+	c #6A2B2F",
"z+	c #8C595C",
"A+	c #B15A60",
"B+	c #1B0506",
"C+	c #E87577",
"D+	c #FAA7A0",
"E+	c #E45963",
"F+	c #FFA39D",
"G+	c #E36469",
"H+	c #D18C86",
"I+	c #AC6260",
"J+	c #FA656F",
"K+	c #5C1F23",
"L+	c #5B1F23",
"M+	c #E75A64",
"N+	c #98383F",
"O+	c #B6464D",
"P+	c #DC5960",
"Q+	c #F2706B",
"R+	c #E05F62",
"S+	c #C44B53",
"T+	c #D8535D",
"U+	c #C14A53",
"V+	c #FC6E6F",
"W+	c #F9686D",
"X+	c #F9666D",
"Y+	c #C94D56",
"Z+	c #9E5055",
"`+	c #E7959A",
" @	c #A75359",
".@	c #623F2B",
"+@	c #070101",
"@@	c #E5BEB1",
"#@	c #F9616C",
"$@	c #A23C43",
"%@	c #FF737A",
"&@	c #9C5151",
"*@	c #A03B42",
"=@	c #E25861",
"-@	c #AE5154",
";@	c #A94E51",
">@	c #FFD9C8",
",@	c #9D5C5A",
"'@	c #845F59",
")@	c #47161A",
"!@	c #B8474E",
"~@	c #0E0202",
"{@	c #7B2C31",
"]@	c #DF6562",
"^@	c #853336",
"/@	c #C15252",
"(@	c #B0464B",
"_@	c #F7786F",
":@	c #FA696E",
"<@	c #EF6368",
"[@	c #FC656E",
"}@	c #F6606B",
"|@	c #E45862",
"1@	c #AD6F73",
"2@	c #442527",
"3@	c #26090B",
"4@	c #C54C55",
"5@	c #E77779",
"6@	c #F15E69",
"7@	c #CD8A84",
"8@	c #C64C54",
"9@	c #FF9693",
"0@	c #2B0A0D",
"a@	c #7B2C32",
"b@	c #CA4E56",
"c@	c #EF5D68",
"d@	c #340D0F",
"e@	c #F47176",
"f@	c #000102",
"g@	c #C97F7A",
"h@	c #E28380",
"i@	c #EF7C7D",
"j@	c #706058",
"k@	c #A67C74",
"l@	c #ED5D66",
"m@	c #E65964",
"n@	c #F86E6D",
"o@	c #D6595D",
"p@	c #EE5E67",
"q@	c #F4636A",
"r@	c #EA6B67",
"s@	c #DC665F",
"t@	c #C25152",
"u@	c #AC4047",
"v@	c #E95A65",
"w@	c #A33D45",
"x@	c #7A2C32",
"y@	c #612226",
"z@	c #C24A53",
"A@	c #E55963",
"B@	c #E15861",
"C@	c #9B3A41",
"D@	c #4B181C",
"E@	c #330D10",
"F@	c #F77C7F",
"G@	c #150304",
"H@	c #170405",
"I@	c #70272C",
"J@	c #AA4047",
"K@	c #D55F5D",
"L@	c #F66A6C",
"M@	c #F6666B",
"N@	c #E87466",
"O@	c #F7606B",
"P@	c #DC5F5F",
"Q@	c #B64D4D",
"R@	c #832F35",
"S@	c #FBD4C4",
"T@	c #AD6C68",
"U@	c #C84D55",
"V@	c #F17679",
"W@	c #473935",
"X@	c #7D4846",
"Y@	c #E1908B",
"Z@	c #8D343A",
"`@	c #DB8B86",
" #	c #E2807E",
".#	c #853036",
"+#	c #FF6B74",
"@#	c #B37570",
"##	c #070A0D",
"$#	c #C64C55",
"%#	c #EEA69D",
"&#	c #D09089",
"*#	c #802F35",
"=#	c #8A4C4B",
"-#	c #E07C7B",
";#	c #BC4850",
">#	c #0F0202",
",#	c #6D262B",
"'#	c #CA4E57",
")#	c #AB4148",
"!#	c #E06562",
"~#	c #BC5A51",
"{#	c #BA494F",
"]#	c #752A2F",
"^#	c #2F0C0F",
"/#	c #90343A",
"(#	c #FCB0A7",
"_#	c #8D746B",
":#	c #6E272C",
"<#	c #FFA19B",
"[#	c #D38480",
"}#	c #D8545D",
"|#	c #FF787C",
"1#	c #786B62",
"2#	c #6A2429",
"3#	c #E77073",
"4#	c #8B3C40",
"5#	c #1F0608",
"6#	c #CC4F58",
"7#	c #5F1F24",
"8#	c #190506",
"9#	c #4D191D",
"0#	c #C04952",
"a#	c #883238",
"b#	c #B9474F",
"c#	c #B0424A",
"d#	c #8E343A",
"e#	c #AB6462",
"f#	c #E55962",
"g#	c #501A1D",
"h#	c #E29891",
"i#	c #FBBDB2",
"j#	c #B9464F",
"k#	c #531B1F",
"l#	c #A33D44",
"m#	c #DE7777",
"n#	c #7C2C32",
"o#	c #B3444B",
"p#	c #200608",
"q#	c #C05D5F",
"r#	c #CE7977",
"s#	c #391013",
"t#	c #672428",
"u#	c #ED5D67",
"v#	c #9A8379",
"w#	c #682328",
"x#	c #B7484F",
"y#	c #974E4E",
"z#	c #896B63",
"                                                                      .                   ",
"                  . .                     +                   .   . . @ . .               ",
"      # $       % & * =     - ; >   , ' ) ! ~               . . { ] ^ / ( _ : .           ",
"    < [ } | 1 . 2 3 4 5 6 . 7 8 9 0 a b c d e             . f g h i j k j l m n           ",
"  o p q r s p t u v w p x t y z A . B p C D E           F G / H I J K L M N O P Q R       ",
"  S T U V W X Y Z `  .T ..+.@.#.    $.%.&.*.d         =.-.;.>.,.'.p ).T !.~.{.].^./.      ",
"  (._.:.  <.[.}.|.1.K 2.3.4.p d   5.6.7.8.9.U         #.0.a.b.c.d.e.f.g.h.i.j.k.l.m.      ",
"  n._.o.p.q.p r.  / s..   t.b u.v.w.p x.a p y.      . z.A.B.C.D.E.F.G.H.I.J.K.L.M.N.O.    ",
"    P.Q.R.S.T.U.  V.W.    X.Y.Z.`. +p .+++@+#+. $+%+  &+*+=+-+;+T g.>+p ,+p '+)+!+~+{+    ",
"  .   ]+^+/+      (+_+  :+    <+[+  }+    |+    1+2+3+4+5+6+7+8+9+0+a+p b+,+c+_.d+e+f+    ",
"g+h+i+j+.     k+l+m+n+  o+p+q+.                   r+p ~.s+t+u+v+2 w+%.p 9+p H.x+y+z+A+B+  ",
"V E C+D+,   . E+p F+G+. H+I+J+*+K+                L+M+N+O+P+Q+R+S+T+U+V+p W+X+Y+Z+`+ @.@+@",
"r+p @@j #@. $@%@&@*@=@  -@;@2+>@a   ,@'@      )@    !@~@{@T+]@^@/@(@_@:@<@[@}@|@U 1@2@3@#.",
"  4@5@6@7@. 8@9@0@  a@  b@c@d@e@M+f@g@h@i@j@  ^+k@  . . s.l@m@n@o@G.p@q@J i.r@s@t@n       ",
"  u@v@w@:.]+x@y <.y@    z@A@. @.B@    C@=@D@  E@F@G@    H@I@J@K@}@L@7 M@g.N@O@P@Q@.       ",
"  R@S@T@U@V@W@X@Y@T Z@  `@ #.#+#@###$#%#&#*#=#-#;#        >#,#'#)#!#2 ~#T+{#K.]#^#.       ",
"    T+{ /#(#_#  > p u :#<#[#}#|#1#  2#3#4#5#  . 6#7#          8#9#0#a#b#c#d#R@  .         ",
"    '+e##@f#g#s h#i#j#(+_.k#'#l#      m#n#o#p#q#r#s#              . . . : . #.            ",
"  t#u#v#.   w#x#y#z#    X.            .                                                   ",
"    .                                                                                     "};
