/* XPM */
static char * bsd73_logo_xpm[] = {
"84 20 392 2",
"  	c None",
". 	c #000000",
"+ 	c #5F2025",
"@ 	c #020202",
"# 	c #4E191D",
"$ 	c #6F272C",
"% 	c #511A1E",
"& 	c #070101",
"* 	c #350F11",
"= 	c #9D8278",
"- 	c #7E766B",
"; 	c #A13C44",
"> 	c #FF646F",
", 	c #90353B",
"' 	c #D05059",
") 	c #FFB4AA",
"! 	c #E2C5B6",
"~ 	c #330D10",
"{ 	c #AB4048",
"] 	c #E75A64",
"^ 	c #CD4F58",
"/ 	c #F6606B",
"( 	c #FFD4C5",
"_ 	c #FFD5C6",
": 	c #AF424A",
"< 	c #A94047",
"[ 	c #B5454D",
"} 	c #020000",
"| 	c #793C3E",
"1 	c #151311",
"2 	c #71282D",
"3 	c #040001",
"4 	c #B7454D",
"5 	c #CC4E57",
"6 	c #D6B2A4",
"7 	c #FFD8C8",
"8 	c #D4525B",
"9 	c #340E10",
"0 	c #381013",
"a 	c #F4606A",
"b 	c #FFBDB1",
"c 	c #FFABA3",
"d 	c #8C333A",
"e 	c #FFC9BC",
"f 	c #37342F",
"g 	c #D9545D",
"h 	c #96373E",
"i 	c #0E0202",
"j 	c #B87570",
"k 	c #844B49",
"l 	c #40322E",
"m 	c #5F2F2F",
"n 	c #AD4149",
"o 	c #C56163",
"p 	c #545048",
"q 	c #632227",
"r 	c #FA626D",
"s 	c #A43D45",
"t 	c #C94D56",
"u 	c #CF5059",
"v 	c #93363D",
"w 	c #B2434B",
"x 	c #F9616C",
"y 	c #B1434B",
"z 	c #C34B53",
"A 	c #DE5660",
"B 	c #2F0C0E",
"C 	c #F5BCB0",
"D 	c #F5606B",
"E 	c #FF8082",
"F 	c #FF8A8A",
"G 	c #9B3940",
"H 	c #581D21",
"I 	c #A7605E",
"J 	c #C08E86",
"K 	c #89363B",
"L 	c #370F12",
"M 	c #873137",
"N 	c #FF8C8C",
"O 	c #FFCCBE",
"P 	c #FFC7BA",
"Q 	c #A83F47",
"R 	c #3A1113",
"S 	c #D05B61",
"T 	c #FBD4C4",
"U 	c #FEC9BC",
"V 	c #C04952",
"W 	c #642227",
"X 	c #FF7A7E",
"Y 	c #DED0BE",
"Z 	c #6E272C",
"` 	c #FC636E",
" .	c #F7908E",
"..	c #3C3933",
"+.	c #FF9391",
"@.	c #666259",
"#.	c #AA4047",
"$.	c #E55963",
"%.	c #692529",
"&.	c #FF6C75",
"*.	c #A24F50",
"=.	c #DF5660",
"-.	c #602025",
";.	c #853036",
">.	c #EB5C66",
",.	c #FFCDBF",
"'.	c #FFD9C9",
").	c #ED5D67",
"!.	c #6A252A",
"~.	c #42191B",
"{.	c #C64C54",
"].	c #FF6570",
"^.	c #FFD6C6",
"/.	c #FFCEC0",
"(.	c #75292F",
"_.	c #A83F46",
":.	c #9C3A41",
"<.	c #D3525B",
"[.	c #D16A6C",
"}.	c #FFA7A0",
"|.	c #501A1E",
"1.	c #BE4851",
"2.	c #FF6771",
"3.	c #FFC5B8",
"4.	c #FF9693",
"5.	c #602125",
"6.	c #FF8183",
"7.	c #4F191D",
"8.	c #FF8C8B",
"9.	c #7E6F66",
"0.	c #FF7C80",
"a.	c #886E65",
"b.	c #B4444C",
"c.	c #FF6671",
"d.	c #C77472",
"e.	c #FFB8AE",
"f.	c #634E48",
"g.	c #9E3B42",
"h.	c #C04951",
"i.	c #310D0F",
"j.	c #ED5C67",
"k.	c #391013",
"l.	c #EDAAA0",
"m.	c #FFAFA6",
"n.	c #612125",
"o.	c #A73F46",
"p.	c #FFBBB1",
"q.	c #FAD5C5",
"r.	c #CB4E57",
"s.	c #9B3A40",
"t.	c #3F181A",
"u.	c #993940",
"v.	c #FF6670",
"w.	c #F6D9C8",
"x.	c #C07874",
"y.	c #D2515A",
"z.	c #7A2B31",
"A.	c #381012",
"B.	c #B9464E",
"C.	c #D7535D",
"D.	c #E35862",
"E.	c #E85A64",
"F.	c #B8464E",
"G.	c #F7616B",
"H.	c #7D2D32",
"I.	c #DC555F",
"J.	c #2D0B0D",
"K.	c #F25E69",
"L.	c #2B0A0D",
"M.	c #F2908D",
"N.	c #BD4850",
"O.	c #FF9290",
"P.	c #432322",
"Q.	c #7B2C32",
"R.	c #8C3339",
"S.	c #5A1E22",
"T.	c #AB867D",
"U.	c #C3A497",
"V.	c #D1515A",
"W.	c #E4BBAD",
"X.	c #8A3239",
"Y.	c #F45F6A",
"Z.	c #A6978B",
"`.	c #E25C64",
" +	c #C24A53",
".+	c #96383E",
"++	c #692429",
"@+	c #D6535C",
"#+	c #2E0B0E",
"$+	c #5D2024",
"%+	c #EF5D67",
"&+	c #3B1114",
"*+	c #DE565F",
"=+	c #521B1F",
"-+	c #802E34",
";+	c #F5606A",
">+	c #A23C44",
",+	c #6B252A",
"'+	c #FC636D",
")+	c #A53E45",
"!+	c #94373D",
"~+	c #782B30",
"{+	c #8A3339",
"]+	c #FFA49E",
"^+	c #89524F",
"/+	c #FFADA5",
"(+	c #F8616C",
"_+	c #8A3238",
":+	c #CA4D56",
"<+	c #ED8584",
"[+	c #4A171B",
"}+	c #FB626D",
"|+	c #D8535D",
"1+	c #D7535C",
"2+	c #784644",
"3+	c #F35F69",
"4+	c #C54B54",
"5+	c #EA696F",
"6+	c #010000",
"7+	c #BB474F",
"8+	c #672328",
"9+	c #662328",
"0+	c #5D1F24",
"a+	c #EA5B65",
"b+	c #CE4F58",
"c+	c #060101",
"d+	c #685750",
"e+	c #FF8F8E",
"f+	c #E45962",
"g+	c #F2CEBE",
"h+	c #CAA498",
"i+	c #B1605F",
"j+	c #B3444C",
"k+	c #F97076",
"l+	c #A46C67",
"m+	c #CEA69A",
"n+	c #7C2C32",
"o+	c #C2AFA1",
"p+	c #FFB0A8",
"q+	c #FFB0A7",
"r+	c #D1575E",
"s+	c #FFD0C1",
"t+	c #F7D3C3",
"u+	c #080101",
"v+	c #7B2C31",
"w+	c #874B4A",
"x+	c #DFB8AB",
"y+	c #FF767B",
"z+	c #FE646F",
"A+	c #622126",
"B+	c #2C0B0D",
"C+	c #D9666A",
"D+	c #2A0A0C",
"E+	c #99393F",
"F+	c #9B4347",
"G+	c #FFC2B6",
"H+	c #7C615A",
"I+	c #3E1215",
"J+	c #8F353B",
"K+	c #E15861",
"L+	c #451519",
"M+	c #200608",
"N+	c #E25861",
"O+	c #9D3A41",
"P+	c #F5C6B8",
"Q+	c #85796E",
"R+	c #F17B7D",
"S+	c #D27D7A",
"T+	c #0A0908",
"U+	c #D09089",
"V+	c #E78382",
"W+	c #FD636E",
"X+	c #340E11",
"Y+	c #FFD7C7",
"Z+	c #613030",
"`+	c #FCCABC",
" @	c #652327",
".@	c #91353C",
"+@	c #FF8687",
"@@	c #DFADA2",
"#@	c #0E0C0A",
"$@	c #E56C70",
"%@	c #CFA69A",
"&@	c #FFDACA",
"*@	c #FEACA4",
"=@	c #74292F",
"-@	c #FF8B8B",
";@	c #A9A193",
">@	c #010507",
",@	c #020C10",
"'@	c #F08181",
")@	c #FFCEBF",
"!@	c #FFB4AB",
"~@	c #170405",
"{@	c #3E342F",
"]@	c #A29689",
"^@	c #CB575D",
"/@	c #8F343B",
"(@	c #8E343B",
"_@	c #9D3B42",
":@	c #6C262B",
"<@	c #A63E46",
"[@	c #93373D",
"}@	c #F68081",
"|@	c #0F0203",
"1@	c #863137",
"2@	c #FEC2B5",
"3@	c #FFD3C4",
"4@	c #181714",
"5@	c #AA4048",
"6@	c #DB555E",
"7@	c #5E2024",
"8@	c #FF9A96",
"9@	c #FFDBCB",
"0@	c #ED8D8A",
"a@	c #E95B65",
"b@	c #FF8888",
"c@	c #6A655B",
"d@	c #EC5C66",
"e@	c #401316",
"f@	c #23080A",
"g@	c #383530",
"h@	c #D5565E",
"i@	c #F05E68",
"j@	c #E05760",
"k@	c #E2C0B1",
"l@	c #AA605F",
"m@	c #C54C54",
"n@	c #CA4E56",
"o@	c #571D21",
"p@	c #E15761",
"q@	c #FA6770",
"r@	c #F18383",
"s@	c #B2595A",
"t@	c #FF8989",
"u@	c #DD565F",
"v@	c #FE636E",
"w@	c #D8545D",
"x@	c #7D2D33",
"y@	c #FF7D80",
"z@	c #EAD1C0",
"A@	c #F7DBCA",
"B@	c #F0636C",
"C@	c #F9626C",
"D@	c #BF4951",
"E@	c #FBBEB3",
"F@	c #FF908E",
"G@	c #25080A",
"H@	c #F15E68",
"I@	c #9F3B43",
"J@	c #FF6A73",
"K@	c #603C39",
"L@	c #92363C",
"M@	c #6D262B",
"N@	c #DA545E",
"O@	c #FAC8BB",
"P@	c #FF8B8A",
"Q@	c #A03C43",
"R@	c #833036",
"S@	c #D5525C",
"T@	c #360F12",
"U@	c #BF978C",
"V@	c #C74C55",
"W@	c #EE8685",
"X@	c #E69D96",
"Y@	c #612126",
"Z@	c #FF757B",
"`@	c #FF7279",
" #	c #4C181C",
".#	c #F15E69",
"+#	c #753638",
"@#	c #B57671",
"##	c #C84D56",
"$#	c #D5525B",
"%#	c #E2A59B",
"&#	c #EC7477",
"*#	c #FFC0B4",
"=#	c #64514A",
"-#	c #E7BBAE",
";#	c #E4CBBA",
">#	c #AD5355",
",#	c #090102",
"'#	c #B6454D",
")#	c #504A43",
"!#	c #583B37",
"~#	c #C34A53",
"{#	c #28090B",
"]#	c #504C44",
"^#	c #5E5951",
"/#	c #E88A87",
"(#	c #120303",
"_#	c #8B3339",
"                                                                                  .                                                                                     ",
"                                                                              . . . .                       . .       . + .                                             ",
"                                                                              . @ . # $ . .         % & . * = - .   . ; > , . . . .                                     ",
"                              .                                               . . ' > ) ! ~ .     . { ] ^ / ( _ : . . < > [ } | 1 .                                     ",
"                            . . . .                         . .     . . .   . 2 3 4 5 6 7 8 9       0 a > > b c ] . . d e f g > : h .                                   ",
"        . . .             . . i j k .         . l m .     . n o p . q r s . . t u v . . t > w .   . n > x y z > A .   B C . D > E F G .                                 ",
"    . H I J K . . .     L M h N O P Q .     R S T U V .   W > X Y . Z `  .... : > +.@.. #.> $..   %.` &.*.. . =.] .   . > -.;.>.,.'.)..   . !.~.. .         . .         ",
"  . {.].^./.c (.z _.. . :.<.0 [.( }.r |.  . 1.2.3.4.r q . 5.> > 6.7.. x 8.9.. 3 5 0.a.. b.c.d.. . y > e.f.  . g.h..   i.> j.Z k.l.m.> n.. o.p.q.r.s.t..   . u.n .       ",
". < > v.( w.x.0 y.> z.. : > w A.o.> > B.. . C.> D.E.F.. . . G.> > H.. I.> H.    J.K.L.0 E.M.p . . N.> O.P.    . .     Q.> / Q.. w > > R.. S.T.U.V.> W..   . X.Y.Z..     ",
". `.> G.D.0 5. +> > ' . .+> > ++. A > @+. #+r {.. . $+.   . > > > < . %+> &+    . ] E.*+t =+. . . -+;+> >+.           ,+> '+. . )+> > !+    . . ~+>  +.     . {+]+^+.   ",
"1 /+> (+_+. :+(+> > <+. [+}+r . . |+(+1+. g.> #.. . .   . 2+> 3+/ =.4+> > .     . ] 5+6+. B.7+8+. . 9+> }+{.0+.       . > / . . .+> ` 7.      . a+b+c+    . . 5.> : .   ",
"d+e+> (+. . 0 f+> > g+. . h+i+2 j+/ k+l+. m+> 8 n+. .   . o+> n+;.> p+q+> .     . r+s+t+u+n ;+r v+. . w+x+y+z+[ .     A+2.z+B+. 8 > C+.   D+E+F+G+H+I+.   J+y.] K+L+    ",
"M+> > N+.   . O+r > P+. . Q+R+/ > r S+T+. U+> > }+B .   . V+W+S.X+> Y+s+E..     . Z+`+)  @. .@+@@@.   . #@$@> > Q.. . %@&@*@=@n r -@;@>@,@b.E.'@)@!@/ ~@. {@]@^@/@.     ",
". N+> ] .   . (@(+> > .   . > _@:@$ .   . <@> > y . . . . W+> [@. ] e+}@|..       . y.> |@. 1@2@3@4@    . 5@> > 6@. 7@8@9@0@. a@> b@c@    . . u.d@e@f@.     . . 5 s .   ",
". -+z+> :.. g@h@> > N+.   . i@j@. .       !.> -@k@l@O+. . > > m@. n > E..         . n@> . o@p@q@r@. . . . s@t@> A . g.> r 1@Q.> > u@.       . r.v@J.. J+0 . . . w@z .   ",
"  . x@g y@z@A@B@C@3+-+.   . E.i@(@.       . D@E@O F@d@G@. H@> I@. L+> > .         . u@J@K@p@(+(+L@. M@t N@O@3@P@Q@. R@> S@. 1@b+j+T@.       . U@> -+i.V@% . b+W@X@Y@.   ",
"    . . s Z@`@r V. #.     . b+> .#.         . +#@###F.. . {.$#.   . %#&#.       . 5.> *#=#A+g.7@. . a > K.-#;#>#|@. ,#'#;.. . . . .         . )#~ . . . . . o@!#. .     ",
"        . N.N@~#{#        .  @n+n+.             . . .   . . . .   . ]#^#.       . [ > /#.         . . n.(#. . .     . . .                     . .                       ",
"          . . . .           . . .                                               . =+_#A+.         . . .                                                                 ",
"                                                                                                                                                                        "};
