/* XPM */
static char * openbsd_puffy_xpm[] = {
"48 20 420 2",
"  	c #D7D7D7",
". 	c #ADACAC",
"+ 	c #7E6C3B",
"@ 	c #CDAB2B",
"# 	c #C0A029",
"$ 	c #B09227",
"% 	c #D9B52C",
"& 	c #A88B25",
"* 	c #8A8A89",
"= 	c #A1A0A0",
"- 	c #F1C930",
"; 	c #838282",
"> 	c #9E9D9D",
", 	c #F2CA30",
"' 	c #A18624",
") 	c #B7B7B7",
"! 	c #D2D2D2",
"~ 	c #C3C3C3",
"{ 	c #C9C9C9",
"] 	c #C3C3C2",
"^ 	c #D3D3D3",
"/ 	c #D6D6D6",
"( 	c #C4C4C4",
"_ 	c #CCCCCC",
": 	c #CACACA",
"< 	c #BBBBBB",
"[ 	c #997E23",
"} 	c #D7B22B",
"| 	c #6C6B6A",
"1 	c #C2C2C2",
"2 	c #A68A25",
"3 	c #C8A72A",
"4 	c #77631E",
"5 	c #9A8123",
"6 	c #856E20",
"7 	c #917822",
"8 	c #72664A",
"9 	c #C6C6C6",
"0 	c #ABAAAA",
"a 	c #7B6C48",
"b 	c #686259",
"c 	c #7A6B4B",
"d 	c #302819",
"e 	c #D1D1D1",
"f 	c #CFCFCF",
"g 	c #B7B8B8",
"h 	c #D5D5D5",
"i 	c #7A7771",
"j 	c #E9C22F",
"k 	c #8F7722",
"l 	c #BCBCBC",
"m 	c #A4A4A4",
"n 	c #CAA92A",
"o 	c #AE9026",
"p 	c #D3B02C",
"q 	c #413E3C",
"r 	c #B49627",
"s 	c #E7C02E",
"t 	c #61501B",
"u 	c #A38825",
"v 	c #735F1E",
"w 	c #B79827",
"x 	c #B9B9B9",
"y 	c #AFAFAC",
"z 	c #A0A19C",
"A 	c #A2A29D",
"B 	c #A29977",
"C 	c #81817F",
"D 	c #C7C7C7",
"E 	c #BDBEBE",
"F 	c #D4D4D4",
"G 	c #8C7522",
"H 	c #EAC42F",
"I 	c #595550",
"J 	c #767169",
"K 	c #ECC62F",
"L 	c #BA9B28",
"M 	c #7A661F",
"N 	c #504219",
"O 	c #9C8223",
"P 	c #E5BF2E",
"Q 	c #5B4B1B",
"R 	c #887121",
"S 	c #403417",
"T 	c #DBB82D",
"U 	c #555047",
"V 	c #C1C3C3",
"W 	c #C2C3C3",
"X 	c #94927E",
"Y 	c #DDCE6F",
"Z 	c #D1C468",
"` 	c #D7C864",
" .	c #EBD664",
"..	c #AC9C4A",
"+.	c #BFAE71",
"@.	c #9C9379",
"#.	c #C3C4C4",
"$.	c #8B8B8A",
"%.	c #B9B9B8",
"&.	c #A98D26",
"*.	c #CFAD2B",
"=.	c #1E1812",
"-.	c #E3BE2E",
";.	c #DEB92D",
">.	c #BE9F28",
",.	c #676665",
"'.	c #C2A129",
").	c #747372",
"!.	c #BEBEBB",
"~.	c #AEAFAE",
"{.	c #C2BB7F",
"].	c #D9CF72",
"^.	c #D0C769",
"/.	c #E9DE71",
"(.	c #E3D76C",
"_.	c #DFD266",
":.	c #E6D463",
"<.	c #D2BE54",
"[.	c #C9B147",
"}.	c #8F8E86",
"|.	c #BBBCBB",
"1.	c #6F603B",
"2.	c #EEC72F",
"3.	c #828281",
"4.	c #B8B8B7",
"5.	c #7B6C45",
"6.	c #4E4738",
"7.	c #6E5B1D",
"8.	c #3D3216",
"9.	c #E2BD2D",
"0.	c #2E2514",
"a.	c #302714",
"b.	c #66541C",
"c.	c #241D13",
"d.	c #B8BABA",
"e.	c #9C9860",
"f.	c #DCD573",
"g.	c #D5CE6C",
"h.	c #EAE377",
"i.	c #EFE97B",
"j.	c #E0D971",
"k.	c #E5DD72",
"l.	c #E5DA6F",
"m.	c #DFD162",
"n.	c #E2CB57",
"o.	c #D5B843",
"p.	c #877A5D",
"q.	c #BFC0C0",
"r.	c #A8A8A8",
"s.	c #8A7221",
"t.	c #62615F",
"u.	c #AAAAAA",
"v.	c #B29327",
"w.	c #5C564A",
"x.	c #969595",
"y.	c #433A25",
"z.	c #5A5857",
"A.	c #361E15",
"B.	c #BCB370",
"C.	c #E2D874",
"D.	c #F6ED7D",
"E.	c #E2DF77",
"F.	c #DBD975",
"G.	c #E9E67C",
"H.	c #F4F080",
"I.	c #F8F280",
"J.	c #F0E778",
"K.	c #D4CB66",
"L.	c #E6D664",
"M.	c #C8B64F",
"N.	c #9A8A56",
"O.	c #C8C8C8",
"P.	c #69291B",
"Q.	c #51322B",
"R.	c #646362",
"S.	c #AEAFAA",
"T.	c #B8B270",
"U.	c #D6D06D",
"V.	c #D9D672",
"W.	c #D3D173",
"X.	c #FDF886",
"Y.	c #F7F384",
"Z.	c #F0EB80",
"`.	c #FAF583",
" +	c #EFE97C",
".+	c #F2E877",
"++	c #B7B077",
"@+	c #C9C49A",
"#+	c #A5944A",
"$+	c #A7A7A1",
"%+	c #762D1D",
"&+	c #792D1E",
"*+	c #502318",
"=+	c #937A22",
"-+	c #6B581D",
";+	c #742C1D",
">+	c #C4B699",
",+	c #CCCBC8",
"'+	c #A7A8A8",
")+	c #C4BE67",
"!+	c #E3DC74",
"~+	c #DAD875",
"{+	c #EDE980",
"]+	c #F6F183",
"^+	c #F4F082",
"/+	c #F1ED81",
"(+	c #F6F182",
"_+	c #FAF682",
":+	c #FAF17D",
"<+	c #CBC693",
"[+	c #D6D6D5",
"}+	c #A79763",
"|+	c #979592",
"1+	c #908F8F",
"2+	c #787777",
"3+	c #737271",
"4+	c #757474",
"5+	c #787877",
"6+	c #575655",
"7+	c #59491A",
"8+	c #636261",
"9+	c #5E5956",
"0+	c #5E5B5A",
"a+	c #767574",
"b+	c #5C5856",
"c+	c #696767",
"d+	c #706F6E",
"e+	c #727170",
"f+	c #747473",
"g+	c #787676",
"h+	c #888888",
"i+	c #A7A7A7",
"j+	c #B4B3B3",
"k+	c #B5B4B4",
"l+	c #B5B5B5",
"m+	c #AF975C",
"n+	c #D9C05E",
"o+	c #AEA98D",
"p+	c #DAD171",
"q+	c #F4EC7D",
"r+	c #F1ED7F",
"s+	c #F7F385",
"t+	c #F3EE82",
"u+	c #F5F184",
"v+	c #F9F484",
"w+	c #FBF685",
"x+	c #F7F381",
"y+	c #F6EE7C",
"z+	c #F2E472",
"A+	c #C6B556",
"B+	c #CCC05B",
"C+	c #AE9E53",
"D+	c #5D5553",
"E+	c #963421",
"F+	c #C74028",
"G+	c #AA3924",
"H+	c #BB3D26",
"I+	c #9D3622",
"J+	c #685F5D",
"K+	c #A3A3A2",
"L+	c #87311F",
"M+	c #B23B25",
"N+	c #8B3120",
"O+	c #B73C25",
"P+	c #712C1C",
"Q+	c #BD3D27",
"R+	c #A43723",
"S+	c #AF3A24",
"T+	c #812F1F",
"U+	c #898988",
"V+	c #C0C0BE",
"W+	c #CEB64A",
"X+	c #F2DD65",
"Y+	c #E0D66E",
"Z+	c #CEC96A",
"`+	c #E2E078",
" @	c #F0EC81",
".@	c #DFDD78",
"+@	c #D6D371",
"@@	c #EFE678",
"#@	c #F0EC7E",
"$@	c #FCF27E",
"%@	c #EEE16F",
"&@	c #B5A94D",
"*@	c #BDBC51",
"=@	c #BFA941",
"-@	c #979185",
";@	c #5C5B5A",
">@	c #CF4229",
",@	c #84301F",
"'@	c #6A6968",
")@	c #A03623",
"!@	c #939392",
"~@	c #A7A6A6",
"{@	c #6A3830",
"]@	c #71706F",
"^@	c #727271",
"/@	c #A83824",
"(@	c #828180",
"_@	c #ADA386",
":@	c #D3BE52",
"<@	c #B2AB56",
"[@	c #D6D06B",
"}@	c #E3DE76",
"|@	c #DEDC77",
"1@	c #E2DD74",
"2@	c #E2DD76",
"3@	c #E8E27A",
"4@	c #F3EF80",
"5@	c #EFEA7B",
"6@	c #E8E073",
"7@	c #E7D869",
"8@	c #C5B44E",
"9@	c #ECEAA5",
"0@	c #B1A267",
"a@	c #96904C",
"b@	c #A9A9A7",
"c@	c #737272",
"d@	c #993522",
"e@	c #65281B",
"f@	c #746B69",
"g@	c #666564",
"h@	c #6C2A1C",
"i@	c #90908F",
"j@	c #654C48",
"k@	c #AFAEAB",
"l@	c #8C835C",
"m@	c #848164",
"n@	c #CFC764",
"o@	c #CFC767",
"p@	c #B7B05B",
"q@	c #DEDB76",
"r@	c #E8E57B",
"s@	c #F7F17F",
"t@	c #DBD169",
"u@	c #EDDA62",
"v@	c #CCB549",
"w@	c #A1923C",
"x@	c #746F63",
"y@	c #9A9A9A",
"z@	c #AFAFAF",
"A@	c #2C211C",
"B@	c #666463",
"C@	c #CA4128",
"D@	c #412016",
"E@	c #8C8C8B",
"F@	c #7C7B7A",
"G@	c #CC4128",
"H@	c #ACACAC",
"I@	c #C6B855",
"J@	c #D4CA66",
"K@	c #D3CE6B",
"L@	c #E4DD73",
"M@	c #F0E97A",
"N@	c #E4DC73",
"O@	c #DED56E",
"P@	c #F0E471",
"Q@	c #D8C85D",
"R@	c #DCC552",
"S@	c #B29835",
"T@	c #6B6045",
"U@	c #ABABAB",
"V@	c #452922",
"W@	c #4F4D4C",
"X@	c #231912",
"Y@	c #C03E27",
"Z@	c #1F1812",
"`@	c #818080",
" #	c #B4B4B4",
".#	c #959493",
"+#	c #90894B",
"@#	c #DED164",
"##	c #D8CD67",
"$#	c #C2BB5F",
"%#	c #CBC15F",
"&#	c #E5D360",
"*#	c #C3B04B",
"=#	c #B69E3A",
"-#	c #8D773A",
";#	c #868482",
">#	c #B6B6B6",
",#	c #7C2E1E",
"'#	c #8F3320",
")#	c #A6A5A5",
"!#	c #757473",
"~#	c #6E2B1C",
"{#	c #C44027",
"]#	c #62281A",
"^#	c #695856",
"/#	c #C5C5C5",
"(#	c #ADADAD",
"_#	c #7D7349",
":#	c #877F3E",
"<#	c #CFBE54",
"[#	c #AB9C46",
"}#	c #BFAC48",
"|#	c #A4913B",
"1#	c #B29A35",
"2#	c #7E7359",
"3#	c #858483",
"4#	c #B8B8B8",
"5#	c #8E8E8D",
"6#	c #BFBFBF",
"7#	c #939292",
"8#	c #331D15",
"9#	c #878786",
"0#	c #923321",
"a#	c #848483",
"b#	c #C9CAC9",
"c#	c #999999",
"d#	c #6C665E",
"e#	c #6A685F",
"f#	c #7F7049",
"g#	c #6C6658",
"h#	c #7A7774",
"i#	c #A0A0A0",
"j#	c #848383",
"k#	c #B0B0B0",
"l#	c #ACACAB",
"m#	c #5E271A",
"    . + @ # $ % & *                                                                             ",
"  = & - & ; > & , ' ) ! ~ { ] ^     / ( (       { _ : ~ ]                                       ",
"< [ , } | / 1 2 , 3 4 5 6 7 & 8 9 0 a 2 ' b c 6 ' d 5 2               e   f / g h               ",
"i j , k l   m n , # $ , % o , p q r s t j u v , % w p , 4           f x y z A B C D E F         ",
"G , H I     J K , 6 L , M N , } O , ' & P Q R , % S T K U         V W X Y Z `  ...+.@.#.        ",
"' , p $.  %.&., *.=.-.T =.' , & ;., >.u S ,.# , k 4 , '.).      !.~.{.].^./.(._.:.<.[.}.|.~     ",
"1.2.@ 3.4.5.K p 6.7., o 8.9.} 0.P - a.b.& c.j 9.=.w , ' 6     W d.e.f.g.h.i.j.k.l.m.n.o.p.q.    ",
"r.s.;.w r } ' t.u.v., 3 p >.w.x.5 s 9.'.y.v T 2 z.o H w A.    W B.C.D.E.F.G.H.I.J.K.L.M.N.O.    ",
"P.P.P.P.P.P.P.Q.R.% s A.P.P.P.P.P.P.P.P.P.P.P.P.P.P.P.P.P.    S.T.U.V.W.X.Y.Z.`. +.+++@+#+$+/   ",
"%+&+&+&+&+&+%+*+=+, % -+;+%+%+&+&+&+&+&+&+&+&+&+&+&+&+&+  >+,+'+)+!+~+{+]+^+/+(+_+:+<+[+}+|+^   ",
"< 1+2+).3+4+5+6+4 4 4 7+8+9+0+a+b+c+d+e+f+g+5+h+i+j+k+l+l+m+n+o+p+q+r+s+t+u+v+w+x+y+z+A+B+C+1   ",
"  D+E+F+F+G+E+H+I+J+K+L+M+N+E+O+O+P+H+F+Q+E+R+S+T+U+^     V+W+X+Y+Z+`+ @.@+@@@Y.#@$@%@&@*@=@-@/ ",
"  ] ;@>@>@,@'@S+>@)@*+>@L+!@~@{@O+=.R+>@H+]@^@R+>@/@(@    / _@:@<@[@}@|@1@2@3@4@5@6@7@8@9@0@a@b@",
"      >@>@T+c@M+>@d@e@>@F+N+f@g@h@=.R+>@H+i@^ j@>@>@&+(     k@l@m@n@Z+o@p@q@r@s@@@t@u@v@w@x@y@z@",
"      >@>@S+G+>@I+A@B@O+>@>@C@)@D@E@R+>@H+i@  F@G@>@)@H@    #.l+m I@J@K@L@M@N@O@P@Q@R@S@T@U@/   ",
"      >@>@T+V@M+>@)@W@X@N+Y@>@>@Q+Z@R+>@H+i@  `@G@>@d@H@         #.#+#@###$#%@%#&#*#=#-#;#f     ",
"      >@>@,@>#,#>@>@'#e@)#!#~#{#>@]#R+>@H+i@  ^#>@>@P.D         ! /#(#_#:#<#[#}#|#1#2#3#4#e     ",
"    =.>@>@L+5#'#>@Y@N+M+).6#7#R+F+8#R+>@H+c@9#R+>@0#a#              b#H@c#d#e#f#g#h#i#9 ^       ",
"  A.0#H+H+/@0#M+d@D@N+O+S+'#d@M+e@~#M+H+O+0#/@)@P.j#^               / F ^ k#6#l#4#1 O./         ",
"  P.P.P.P.P.P.P.P.P.P.P.P.P.P.P.P.P.P.P.P.P.P.P.P.P.m#E@                  h / h F               "};
