/* XPM */
static char *mini_xterm_32x32[] = {
/* columns rows colors chars-per-pixel */
"32 32 256 2 ",
"   c #0D360F8A0EA4",
".  c #0F3C10CC0F6B",
"X  c #0E96128911BD",
"o  c #137B158E14F6",
"O  c #182C177E13B9",
"+  c #1611179F15B5",
"@  c #19B219A516B7",
"#  c #1684177417AC",
"$  c #15A219471966",
"%  c #1AE61BB319BE",
"&  c #220F19A516E4",
"*  c #23491CCB1A8F",
"=  c #27F51D1D1F72",
"-  c #2E7110F11298",
";  c #36C91EE619DA",
":  c #3F221E7819F6",
">  c #2BF6295F1B84",
",  c #3CFE398B1595",
"<  c #1EB020BF2164",
"1  c #21DF21FB21FD",
"2  c #2AAA2B772A81",
"3  c #24F029B622FF",
"4  c #3929203F1FD3",
"5  c #32EA292F2571",
"6  c #3A342B72259D",
"7  c #3A3926D02B95",
"8  c #356728FB2C28",
"9  c #3DB12CB82B7F",
"0  c #33C4211C2555",
"q  c #2DE230AD2BCA",
"w  c #2CF3378F3069",
"e  c #31FA37703347",
"r  c #38E130CF352C",
"t  c #44751F631A44",
"y  c #5B211648194C",
"u  c #64641C0B1974",
"i  c #74031C921E19",
"p  c #4C5C21FE1CD3",
"a  c #541D22131C20",
"s  c #5BFA23E41D0C",
"d  c #411A3B6A119F",
"f  c #623223301CB3",
"g  c #6C2F24A21CEE",
"h  c #75DF248A1CCA",
"j  c #7ABF24541CCB",
"k  c #4503232C23EA",
"l  c #4BEB2A31283B",
"z  c #58E125E52168",
"x  c #5DC927C6253D",
"c  c #5B482B212C74",
"v  c #54DE27162688",
"b  c #47C03B7928AD",
"n  c #511D37192F12",
"m  c #573D3714277E",
"M  c #469A2AA131F0",
"N  c #58A82BA23107",
"B  c #3FCD3B873228",
"V  c #570930133102",
"C  c #6DC524F62311",
"Z  c #6F14285B24F5",
"A  c #63442B3B2C00",
"S  c #69172A632B2F",
"D  c #7365244323EE",
"F  c #73842C1E2D43",
"G  c #7D1A2DA32CF6",
"H  c #7BF9266D2814",
"J  c #6A9531B52D3F",
"K  c #76AA2FB32734",
"L  c #7B212FBB283E",
"P  c #7DCD38F42F0F",
"I  c #6BFA2E0D32B5",
"U  c #6F19316A311E",
"Y  c #16FF553F2895",
"T  c #1A7B591827B1",
"R  c #313547AF2C1C",
"E  c #339B486B3795",
"W  c #2F825B8D359E",
"Q  c #323D517436B1",
"!  c #1E6973BE2ECA",
"~  c #11C56AC23005",
"^  c #1967656F30C6",
"/  c #1A9A749E32E1",
"(  c #13E77B7E3328",
")  c #2D2568E42D09",
"_  c #2E1464E53590",
"`  c #20F478FA3A16",
"'  c #479F42791705",
"]  c #4BF044B119AD",
"[  c #76F863541C5E",
"{  c #550840FD329A",
"}  c #462A52B034DA",
"|  c #33B340164865",
" . c #39F043945459",
".. c #3BC345AA5C8C",
"X. c #2FA77B604075",
"o. c #471B5C824323",
"O. c #44C4696F44F6",
"+. c #4D9C7806416B",
"@. c #56A07F6D4700",
"#. c #4C7E4E2E60EB",
"$. c #6A6F5F566569",
"%. c #7F3941527C41",
"&. c #829725101E36",
"*. c #8BE4262F1ECA",
"=. c #93F826A41E99",
"-. c #B9D2292F1F8C",
";. c #81B62869277B",
":. c #84F62BB62903",
">. c #89092A0F26F9",
",. c #97E626DD24F5",
"<. c #9E37262C249C",
"1. c #9560293D244B",
"2. c #9D4B2A22222F",
"3. c #945E2CDF2BA4",
"4. c #9D352ADC27FA",
"5. c #89EF30282E90",
"6. c #9B1530D82AD0",
"7. c #95AE300C2C5A",
"8. c #AC6329652293",
"9. c #A8372EBD283A",
"0. c #A1682AC426E8",
"q. c #B4E227522786",
"w. c #B5372CF525B4",
"e. c #BC4F2B5A245E",
"r. c #B43E2E97294B",
"t. c #B9B12CEC2A49",
"y. c #A35B31452B43",
"u. c #AA42326C2964",
"i. c #B31E341D2A38",
"p. c #BBDC327F2C1A",
"a. c #A81E398133B7",
"s. c #A96B3C6D3918",
"d. c #B1013C8834AF",
"f. c #BF25309E3F62",
"g. c #FFE21CFC0000",
"h. c #FFBB263E000B",
"j. c #FF2F2C53008F",
"k. c #FFA332490031",
"l. c #E5CA2B111955",
"z. c #EE1034CC1142",
"x. c #C4EA2BBD2317",
"c. c #CD232D1C244D",
"v. c #C3552E66286B",
"b. c #D3D32C3724A0",
"n. c #DB622D692370",
"m. c #DC4124B4227A",
"M. c #C5E9306E25D1",
"N. c #CF462FB52555",
"B. c #C38234072CA0",
"V. c #CA1C3498293D",
"C. c #C5FC3CF72844",
"Z. c #D54E35472A01",
"A. c #D55D346026FF",
"S. c #C7D42E6836E4",
"D. c #E573382C2795",
"F. c #E1CD36CA27F1",
"G. c #83D975871588",
"H. c #88384EAF3D70",
"J. c #9DFC4BDE340D",
"K. c #92C45A613376",
"L. c #B6EF58C72ABB",
"P. c #A9A645983928",
"I. c #BAEC472B38D8",
"U. c #B4074234396F",
"Y. c #FFD3437A0009",
"T. c #FF1D52490087",
"R. c #F73C53D908A0",
"E. c #D6C84AF82836",
"W. c #D65F55952889",
"Q. c #C614401A3222",
"!. c #C071552A3E1B",
"~. c #AF053ECA4EB1",
"^. c #ABFD3D3851DA",
"/. c #95172B1E6594",
"(. c #959034CC6644",
"). c #AF4A426E4EB3",
"_. c #AC4150884C41",
"`. c #AAD657E952DC",
"'. c #BFAC62714D6F",
"]. c #A33A6F425E5C",
"[. c #B76B66B35341",
"{. c #AA57708B555D",
"}. c #97E74AC263B2",
"|. c #85FB46F57582",
" X c #858E71DE63E4",
".X c #1BBC86223B06",
"XX c #207981F13AF0",
"oX c #29888C884322",
"OX c #36AF843340A1",
"+X c #B9BAA6282BB3",
"@X c #BA9DAA1A37FD",
"#X c #BD91AD8635BB",
"$X c #C286AB8A24EF",
"%X c #C102ACF7281A",
"&X c #C52BB0A62CF6",
"*X c #C971B3D427EE",
"=X c #DD4AC4AF1E48",
"-X c #BB2AAC8C4A9A",
";X c #B6AEA59C4847",
":X c #BD15AF2E513C",
">X c #A01C8D8F6A51",
",X c #965789436BEB",
"<X c #9A779DAE7C60",
"1X c #C1818EFA6EA1",
"2X c #CEEB853D624B",
"3X c #C73A99187DC7",
"4X c #CF3D9FC9792A",
"5X c #5EBA36DE9E41",
"6X c #6D3B20428C57",
"7X c #6F3F32EE8B55",
"8X c #7BBE3A0C803C",
"9X c #1871160BE000",
"0X c #1934162DDB40",
"qX c #278D17CCCE01",
"wX c #2B781C57C9B7",
"eX c #2BF519B2C90A",
"rX c #34291C17C18D",
"tX c #2E162313C760",
"yX c #0DB1117BE62B",
"uX c #13AA165DE172",
"iX c #053A02A5F29B",
"pX c #000013CEF4D3",
"aX c #010E1D44F4F1",
"sX c #09A5213CEB99",
"dX c #0000279AF500",
"fX c #0000283FF9EB",
"gX c #0AF04548F448",
"hX c #9D618B4583F0",
"jX c #AD2995AF8A16",
"kX c #B5779DB39416",
"lX c #B5D7AA46833F",
"zX c #C42CC00488C0",
"xX c #CC82B5FE8404",
"cX c #D72CB4D38BD4",
"vX c #C0A0A664946B",
"bX c #D3FEB6929D35",
"nX c #D4E7BCB49961",
"mX c #E28FBC50941A",
"MX c #CAABB90FA49A",
"NX c #BB70C4FC8E3C",
"BX c #C7A5C1F488BF",
"VX c #CB24C9409723",
"CX c #E1F0C5F196EE",
"ZX c #E0BBC885A719",
"AX c #E5EACD29AA9C",
"SX c #E7BCD2BBA0E6",
"DX c #E85AD6E3AF94",
"FX c #E8AAD09AAC5B",
"GX c #E8F3D76AB052",
"HX c #EBB6DCA7B53A",
"JX c #ED83EB18A39B",
"KX c #EF8CE972B1C0",
"LX c #F1E7E72CB8C9",
"PX c #F39EE928BA00",
"IX c #F803F724B051",
"UX c None",
/* pixels */
"UXUXUXUXUXUXUXUXUXUXUXUXUXUXUXUXUXUXUXUXg.k.Y.k.h.UXUXUXj.k.h.UX",
"UXUXUXUXUXUXUXUXUXUXUXUXUXUXUXUXUXUXUXUXUX(.}.(.6XUXUXUX(./.UXUX",
"UXUXUXUXUXUXUXUXUXUXUXUX9 J UXUXUXUXUXUXUXdXrX|.%.uXyX8X7XsXaXUX",
"UXl L UXUXUXUXUXUXUXUXUXUXc 6.d.UXUXUXUXUXfXUXY.W.wXqXZ.UXUXfXUX",
"< s y.UXUXUXUXUX5 l J 5.UX6 :.V.UXUXUXUXUXUXUXUXE.tXwXf.UXUXUXUX",
"@ g u.UXUXUX* ; p z ;.2.:.D ;.v.V.UXUXUXUXUXUXUX).rX0XUXUXUXUXUX",
"o a w.i.6.p t g f *.U.I.p.[.P.e.Z.UXUXUXUXUXUXUX^.wXwX).UXUXUXUX",
"+ * h -.e.*.h j =.a.3XCX'.4XcXP.y.UXUXUXUXUXUXUXA.qXtXE.UXUXUXUX",
"< $ * p g g h &.-._.CXIXmX2XKX1XP UXUXUXUXUXUXk.UXiXwXW.Y.UXUXUX",
"UX% $ $ & ; f =.x.`.SXJXlX{.>X,XH.UXUXUXUXUXh.h.UXpXuX).R.j.UXUX",
"UXUX% o o & u 2.c.`.SXBXB n l 5 K UXUXUXUXUXk.S.gXpX9X5X!.T.UXUX",
"UXUXUXX   & f <.n.U.nXBX% - i u r.i.UXUXg.k.k.l.UXUXUXm.z.Y.k.g.",
"UXUXUXX X % a *.x.w.].xX{ y c.c.N.A.UXUXUXUXUXUXUXUXUXUXUXUXUXUX",
"UXUXUXUX  + t j 8.c.x.Q.6.H e.e.V.Z.K.#X;XUXUXUXUXUXUXUXUXUXUXUX",
"UXUXUXUXX X * f =.8.c.n.c.q.e.,.y.d.;XUXUX-XUXUXUXUXUXUXUXUXUXUX",
"UXUXUXUXUXX O 4 C g D 2.e.e.4.U UXUX@X-X$X*XUXUXUXUXUXUXUXUXUXUX",
"UXUXUXUXUXUX@ = A H H C D Z UXUXUXUX&X=X+XUXUX:XUXUXUXUXUXUXUXUX",
"UXUXUXUXUXUXUXk 1.0.,.,.5.UXUXI p.L.%XUX*X&X&XUXUXUXUXUXUXUXUXUX",
"UXUXUXUXUXUX@ C c.A.n.N.t.U r M 3.C.J.UXUXUXUXUXUXUXUXUXUXUXUXUX",
"UXUXUXUXUXUX+ x 7.q.w.M.V.G 7 M 7.B.s.UXUXUXUXUXUXUXUXUXUXUXUXUX",
"UXUXUXUXUX@ $ k A U t.F.D.0.7 N 5.G UXUXUXUXUXUXUXUXUXUXUXUXUXUX",
"UXUXUXUXUX+ + < 9 A 3.p.Z.t.S V UXUXUXUXUXUXUXUXUXUXUXUXUXUXUXUX",
"UXUXUXUXUXUX+ $ < 7 c F G F A UXUXUXUXUXUXUXUXUXUXUXUXUXUXUXUXUX",
"UXUXUXUXUXUX$ > , 5 0 k c ;.9.UXUXUXUXUXUXUXUXUXUXUXUXUXUXUXUXUX",
"UXUXUXUXUX% ] G.[ m p D 8.A.Z.UXUXUXUXUXUXUXUXUXUXUXUXUXUXUXUXUX",
"UXUXUXUXUXO d ] 8 l H q.b.v.UXUXUXUXUXUXUXUXUXUXUXUXUXUXUXUXUXUX",
"UXUXUXUX< @ @ % % 3 6 z m b UXUXUXUXUXUXUXUXUXUXUXUXUXUXUXUXUXUX",
"UXUXq 2 1 < q Q T ~ ^ Y oXX.UXUXUXUXUXUXUXUXUXUXUXUXUXUXUXUXUXUX",
"2 q 2 q UXUXe o./ XX` / .XOX@.+.}  XUXUXUXUXUXUXUXUXUXUXUXUXUXUX",
"UXUXUXUXUXe w R ) / ( ( O.<XVXNX,XjXHXPXGXbXUXUXUXUXUXUXUXUXUXUX",
"UXUXUXUXUXUX .| E Q _ W $.MXPXPXGXjXkXFXAXbXUXUXUXUXUXUXUXUXUXUX",
"UXUXUXUXUXUXUXUX...... .#.hXbXZXAXvXUXUXUXUXUXUXUXUXUXUXUXUXUXUX"
};
