/* XPM */
static char *wicon32x32[] = {
/* width height num_colors chars_per_pixel */
"    32    32        7            1",
/* colors */
". c #000000",
"# c #0e5bd6",
"a c #727272",
"b c #a5318e",
"c c #db0d0d",
"d c #efb917",
"e c #ffffff",
/* pixels */
"################################",
"eeeeeeeeeeeeeee.eeeeeeeeeeeeeee.",
"ecccccccccccccc.eaaaaaaaaaaaaaa.",
"e...............e...............",
"eeeeeeeeeeeeeee.eeeeeeeeeeeeeee.",
"eaaaaaaaaaaaaaa.eaaaaaaaaaaaaaa.",
"ea##a###aa###aa.ea##a###aa###aa.",
"eaaaaaaaaaaaaaa.eaaaaaaaaaaaaaa.",
"ea..a....a...aa.ea##a####a###aa.",
"eaaaaaaaaaaaaaa.eaaaaaaaaaaaaaa.",
"ea..a....a...aa.ea##a##aaa###aa.",
"eaaaaaaaaaaaaaa.eaaaaaaaaaaaaaa.",
"ea..a..aaa...aa.ea..a...aa...aa.",
"eaaaaaaaaaaaaaa.eaaaaaaaaaaaaaa.",
"ea..a...aa...aa.eaddaddddadddaa.",
"eaaaaaaaaaaaaaa.eaaaaaaaaaaaaaa.",
"eaaaaaaaaaaaaaa.ea..a....a...aa.",
"eaaaaaaaaaaaaaa.eaaaaaaaaaaaaaa.",
"e...............e...............",
"eeeeeeeeeeeeeeeeeeeeeeeeeeeeeee.",
"eaaaaaaaaaaaaaa.eaaaaaaaaaaaaaa.",
"e...............e...............",
"eeeeee.eeeee.eeeee.eeeeee.eeeeee",
"e#####.eaaaa.eaaaa.e#####.eaaaa.",
"e......e.....e.....e......e.....",
"eeeeeeeeeeeeeeeeeeeeeeeeeeeeeeee",
"ebbbbb.e####.ecccc.eddddd.eaaaa.",
"e......e.....e.....e......e.....",
"eeeeeeeeeeeeeeeeeeeeeeeeeeeeeeee",
"eaaaaa.eaaaa.eaaaa.eaaaaa.eaaaa.",
"e......e.....e.....e......e.....",
"bbbbbbbbbbbbbbbbbbbbbbbbbbbbbbbb"
};
