/* XPM */
static char * WorkerIcon_xpm[] = {
"64 64 33 1",
" 	c None",
".	c #020204",
"+	c #848484",
"@	c #0E5AD4",
"#	c #C3C3C4",
"$	c #E90806",
"%	c #1E76E4",
"&	c #252524",
"*	c #A4A4A4",
"=	c #E4E4E4",
"-	c #444444",
";	c #646464",
">	c #141414",
",	c #949494",
"'	c #D4D4D4",
")	c #222ACC",
"!	c #B8B8B8",
"~	c #FEFEFC",
"{	c #A6328C",
"]	c #383838",
"^	c #595959",
"/	c #727274",
"(	c #0B0B0C",
"_	c #8C8C8C",
":	c #CCCCCC",
"<	c #2E2E2C",
"[	c #ACACAC",
"}	c #EBEBEC",
"|	c #4D4D4C",
"1	c #6D6D6C",
"2	c #1B1B1C",
"3	c #9B9B9C",
"4	c #DCDCDC",
"////////////////////////////////////////////////////////////////",
"/~~~~~~~~~~~~~~~~~~~~~~~~~~~~~~~~~~~~~~~~~~~~~~~~~~~~~~~~~~~~~~/",
"/~)).~))))))))))))))))))))))))))))))))))))))))))))))))))))))))./",
"/~)).~))))))))))))))))))))))))))))))))))))))))))))))))))))))))./",
"/............................................................../",
"/~~~~~~~~~~~~~~~~~~~~~~~~~~~~~~~~~~~~~~~~~~~~~~~~~~~~~~~~~~~~~~/",
"/~$$$$$$$$$$$$$$$$$$$$$$$$$$$$.~333333333333333333333333333333./",
"/~$$$$$$$$$$$$$$$$$$$$$$$$$$$$.~333333333333333333333333333333./",
"/............................................................../",
"/~~~~~~~~~~~~~~~~~~~~~~~~~~~~~~~~~~~~~~~~~~~~~~~~~~~~~~~~~~~~~~/",
"/~//////////////////////////~~.~//////////////////////////////./",
"/~/%%%/%%/%/%/%/%/%/%///////~..~/////////////////////////|^///./",
"/~/11//1////////////////////~..~///////////////////////3*|(^//./",
"/~/%/%/%1%%1%1%1%1%%%///////~..~////////////////////+1|!=!<]//./",
"/~/////////////////1////////~..~///////////////////_3[+::#/^1/./",
"/~/%%%/%/%/%//%/%/%/%///////~..~///////////////1+/;+#'[#1++///./",
"/~//////////////////////////~..~///////////////++3_-+44+2/////./",
"/~/..//.././/.//./...///////~..~//////]1/////1+!=}=^|'~,2^////./",
"/~//////////////////////////~..~/////^,-////1/*!/#'^;:~3&^////./",
"/~///.//.//.///.////////////~..~//1+#=!|1/+1|/!#^__^1[~[<|////./",
"/~/.//.//////.//////.///////~..~////*4'|1++/++:#3[^;+3}#||1///./",
"/~//////////////////////////~..~////,:}++[:^/34=#+/+,_4:|-1///./",
"/~//////////////////////////~..~////_#=,+[3^/34}!;+*_;*3;/////./",
"/~//////////////////////////~..~/////*4++[+;/_:~4*[*1^////////./",
"/~//////////////////////////~..~/_/_+3:,[#1/1+3:=4:1^/////////./",
"/~//////////////////////////~..~+*[+1*'''4!_+3^+33////////////./",
"/~//////////////////////////~2]#_!=[/,'=!!'==!|;+/////////////./",
"/~//////////////////1///////~-,[*![,+3:'//,:}*-1//////////////./",
"/~////////////////+,*///////~]+:#3+//,#'/^/_,;1///////////////./",
"/~///////////////<_#3+//+_33}2-#4_;//+!},;////////////////////./",
"/~/////////////^;1,*+//_,['4:-]'=_1//+*'*|////////////////////./",
"/~////////////_1;1,!_/+[!_+'=+|'=,;/1/_+^/////////////////////./",
"/~/////////,1#!//;,#,/_![+;3}!^44*1////1//////////////////////./",
"/~///////1]^*=:,/^+!,/#=_//14'^}=#////////////////////////////./",
"/~//////*_;];4=#,1+3+/*43+1+''|=#*|///////////////////////////./",
"/~/////*4*/|^#=~:+;3+^*}#_/+4:]~+;////////////////////////////./",
"/~///2;4}'_1-![}=3/[+/;}~*,*'*&~1/////////////////////////////./",
"/~/1-&]+4=#_-!/[~'*#//^3==:#3&.~//////////////////////////////./",
"/~~~}~1]*=}~+#'1=~==~~~/_*[/^/.~//////////////////////////////./",
"/~.~....-+~'^1+(+}}4|...(&,(//.~//////////////////////////////./",
"/.......(&!~[!*.&3#=;(........................................./",
"/~~~~~~~};^}}==~:^^=}~~~~~~~~~~~~~~~~~~~~~~~~~~~~~~~~~~~~~~~~~~/",
"/~........2*~}[>..>/-........~.~.............................~./",
"/~.///////]-[44_//]]1////////~.~.////////////////////////////~./",
"/~.///////;-],',//1//////////~.~.////////////////////////////~./",
"/~~~~~~~~~~~+;!~~~~~~~~~~~~~~~.~~~~~~~~~~~~~~~~~~~~~~~~~~~~~~~./",
"/............>(................................................/",
"/~~~~~~~~~~~~}~~~~~~~~~~~~~~~~~~~~~~~~~~~~~~~~~~~~~~~~~~~~~~~~~/",
"/~/////////////~//////////.~//////////.~@@@@@@@@@@.~//////////./",
"/~/////////////~//////////.~//////////.~@@@@@@@@@@.~//////////./",
"/............................................................../",
"/~~~~~~~~~~~~~~~~~~~~~~~~~~~~~~~~~~~~~~~~~~~~~~~~~~~~~~~~~~~~~~/",
"/~{{{{{{{{{{{{{~@@@@@@@@@@.~$$$$$$$$$$.~//////////.~//////////./",
"/~{{{{{{{{{{{{{~@@@@@@@@@@.~$$$$$$$$$$.~//////////.~//////////./",
"/............................(((((.(.........................../",
"/~~~~~~~~~~~~~~~~~~~~~~~~~~~~~~~~~~~~~~~~~~~~~~~~~~~~~~~~~~~~~~/",
"/~/////////////~//////////.~//////////.~//////////.~//////////./",
"/~/////////////~//////////.~//////////.~//////////.~//////////./",
"/............................................................../",
"/~~~~~~~~~~~~~~~~~~~~~~~~~~~~~~~~~~~~~~~~~~~~~~~~~~~~~~~~~~~~~~/",
"/~{{{{{{{{{{{{{{{{{{{{{{{{{{{{{{{{{{{{{{{{{{{{{{{{{{{{{{{{{{{{./",
"/~{{{{{{{{{{{{{{{{{{{{{{{{{{{{{{{{{{{{{{{{{{{{{{{{{{{{{{{{{{{{./",
"/............................................................../",
"////////////////////////////////////////////////////////////////"};
