/* XPM */
static char * wicon48x48_xpm[] = {
"48 48 33 1",
" 	c None",
".	c #020202",
"+	c #969696",
"@	c #3A3A3A",
"#	c #424242",
"$	c #EE0606",
"%	c #848484",
"&	c #135DD4",
"*	c #A2A0A1",
"=	c #222ACE",
"-	c #4D4B4D",
";	c #BEBEBE",
">	c #F68282",
",	c #565656",
"'	c #4372B1",
")	c #1D1D1D",
"!	c #DA0E0E",
"~	c #E5E5E5",
"{	c #9296E6",
"]	c #5A5A5A",
"^	c #2B262A",
"/	c #D2D2D2",
"(	c #5E5E5E",
"_	c #A6328E",
":	c #52729E",
"<	c #626262",
"[	c #072960",
"}	c #560202",
"|	c #B2B2B2",
"1	c #676667",
"2	c #56173E",
"3	c #323232",
"4	c #727273",
"4++++++++++++++++++++++++++++++++++++++++++++++4",
"+/{*/{{{{{{{{{{{{{{{{{{{{{{{{{{{{{{{{{{{{{{{{{%4",
"+{=#{=========================================),",
"1##############################################1",
"+/>>>>>>>>>>>>>>>>>>>>+~//////////////////////*4",
"+>$$$$$$$$$$$$$$$$$$$$};++++++++++++++++++++++-,",
"1##############################################1",
"+~;;;;;;;;;;;;;;;;;;;~;~;;;;;;;;;;;;;;;;;;;;;;*4",
"+;'':'':4':4':4'44444/);4444444444444444444(44@,",
"+;44444:444444:444444;.;44444444444444444+*##4@,",
"+;:4::4'4::4::':44444;.;44444444444444%+4|/%-4@,",
"+;'':'4:'4:4':4'44444;.;44444444444444%;;;%%44@,",
"+;((4((11114(1,(44444;.;44444444444%*|(+~*3444@,",
"+;##4##,11,4#,@#44444;.;44441(4444%||/44~|3144@,",
"+;4(#4343443444444444;.;444||1444(+;4*1%/;@<44@,",
"+;34#(444(#4444344444;.;444|/%4+44|/*%1%;/-(44@,",
"+;4444444444444444444;.;444*/*+|4%;~|4+%+|(144@,",
"+;4444444444444444444;.;444%;*%*44|~;+*44%4444@,",
"+;4444444444444444444;.;%%%%;|;*44+|/;%<444444@,",
"+;4444444444444444444;)|+;*4|/;/;|%4+%44444444@,",
"+;4444444444444444444/]**;*%|/%+;/4(4444444444@,",
"+;444444444444++444%%;,|;%44*/41%%144444444444@,",
"+;444444444114|%44+|;|@|/444+/%144444444444444@,",
"+;44444444441%|%4+|+;;]|/%44%+4444444444444444@,",
"+;4444414+;+44|+%;+4%~+;/+44444444444444444444@,",
"+;4444%1-*/|%4*%+/+44/+;/%44444444444444444444@,",
"+;444+;%,4/~|4+4%/|%%/%/%444444444444444444444@,",
"+;4,@|~|4(|/~+*%1;~|*|,;4444444444444444444444@,",
"+~;+4]/~;4|+~//;|+;;*4^;4444444444444444444444@,",
"+*/@3)1/~4+#|~~4#^@4#4@;4444444444444444444444@,",
"1####@@4~;;(]+/4###############################1",
"+;%%%%1@*~/+]3++%%%%%*;~%%%%%%%%%%%%%%%%%%%%%*;4",
"+%#,,,,#,//%,##<,,,,,%%;),,,,,,,,,,,,,,,,,,,,%%,",
"+*%+++++4]||+++++++++|%;,++++++++++++++++++++|%,",
"4%%%%%%%%@,4%%%%%%%%%%#<%%%%%%%%%%%%%%%%%%%%%%#,",
"%;;;;;;;;;;;;;;;;;;;;;;;;;;;;;;;;;;;;;;;;;;;;;;%",
"+;444444444~4444444@;4444444@;&&&&&&&[;4444444@,",
"4(@@@@@@@@@4@@@@@@@)<@@@@@@@)<[[[[[[[)<@@@@@@@),",
"%;;;;;;;;;;;;;;;;;;;;;;;;;;;;;;;;;;;;;;;;;;;;;;%",
"+*_________/&&&&&&&[;!!!!!!!};4444444@;4444444@,",
"4,2222222221[[[[[[[)<}}}}}}}}<@@@@@@@)<@@@@@@@),",
"%;;;;;;;;;;;;;;;;;;;;;;;;;;;;;;;;;;;;;;;;;;;;;;%",
"+;444444444~4444444@;4444444@;4444444@;4444444@,",
"4(@@@@@@@@@4@@@@@@@)<@@@@@@@)<@@@@@@@)<@@@@@@@),",
"%;;;;;;;;;;;;;;;;;;;;;;;;;;;;;;;;;;;;;;;;;;;;;;%",
"+*____________________________________________2,",
"4,22222222222222222222222222222222222222222222),",
"1,,,,,,,,,,,,,,,,,,,,,,,,,,,,,,,,,,,,,,,,,,,,,,1"};
